<svg xmlns="http://www.w3.org/2000/svg" viewBox="0 0 32 32" width="64" height="64" shape-rendering="crispEdges" role="img"><title>Pixel art kitchen</title><style>
.twinkle{animation:tw 3.2s ease-in-out infinite}.twinkle.d2{animation-delay:-1.1s}.twinkle.d3{animation-delay:-2.3s}
@keyframes tw{0%,100%{opacity:1}50%{opacity:.25}}
.smoke{animation:sm 4s linear infinite;opacity:0}.smoke.d2{animation-delay:-1.33s}.smoke.d3{animation-delay:-2.66s}
@keyframes sm{0%{transform:translate(0,0);opacity:.0}15%{opacity:.8}100%{transform:translate(3px,-9px);opacity:0}}
.drift{animation:dr 40s ease-in-out infinite alternate}
@keyframes dr{from{transform:translateX(0)}to{transform:translateX(14px)}}
.blink-a{animation:bl 1.2s steps(1) infinite}.blink-b{animation:bl 1.2s steps(1) infinite;animation-delay:-.6s}
@keyframes bl{0%{opacity:1}50%{opacity:.35}}
.frame-a{animation:fa 1.4s steps(1) infinite}.frame-b{opacity:0;animation:fb 1.4s steps(1) infinite}
@keyframes fa{0%{opacity:1}50%{opacity:0}}@keyframes fb{0%{opacity:0}50%{opacity:1}}

@media (prefers-reduced-motion:reduce){*{animation:none!important}.smoke{opacity:.6}}</style><rect x="0" y="0" width="32" height="32" fill="#22345f"/><rect x="3" y="3" width="1" height="1" fill="#f6efd2"/><rect x="24" y="5" width="1" height="1" fill="#f6efd2"/><rect x="9" y="7" width="1" height="1" fill="#f6efd2"/><rect x="27" y="2" width="1" height="1" fill="#f6efd2"/><rect x="0" y="28" width="32" height="4" fill="#21402d"/><rect x="0" y="28" width="32" height="1" fill="#5b4a3a"/><rect x="19" y="9" width="1" height="1" fill="#0a0e18"/><rect x="20" y="8" width="1" height="1" fill="#0a0e18"/><rect x="21" y="8" width="1" height="1" fill="#0a0e18"/><rect x="23" y="9" width="1" height="1" fill="#0a0e18"/><rect x="22" y="8" width="1" height="1" fill="#0a0e18"/><rect x="19" y="10" width="1" height="1" fill="#0a0e18"/><rect x="23" y="10" width="1" height="1" fill="#0a0e18"/><rect x="19" y="11" width="1" height="1" fill="#0a0e18"/><rect x="23" y="11" width="1" height="1" fill="#0a0e18"/><rect x="19" y="12" width="1" height="1" fill="#0a0e18"/><rect x="23" y="12" width="1" height="1" fill="#0a0e18"/><rect x="23" y="13" width="1" height="1" fill="#0a0e18"/><rect x="23" y="14" width="1" height="1" fill="#0a0e18"/><rect x="6" y="17" width="1" height="1" fill="#0a0e18"/><rect x="25" y="17" width="1" height="1" fill="#0a0e18"/><rect x="6" y="18" width="1" height="1" fill="#0a0e18"/><rect x="25" y="18" width="1" height="1" fill="#0a0e18"/><rect x="6" y="19" width="1" height="1" fill="#0a0e18"/><rect x="25" y="19" width="1" height="1" fill="#0a0e18"/><rect x="6" y="20" width="1" height="1" fill="#0a0e18"/><rect x="25" y="20" width="1" height="1" fill="#0a0e18"/><rect x="6" y="21" width="1" height="1" fill="#0a0e18"/><rect x="25" y="21" width="1" height="1" fill="#0a0e18"/><rect x="6" y="22" width="1" height="1" fill="#0a0e18"/><rect x="25" y="22" width="1" height="1" fill="#0a0e18"/><rect x="6" y="23" width="1" height="1" fill="#0a0e18"/><rect x="25" y="23" width="1" height="1" fill="#0a0e18"/><rect x="6" y="24" width="1" height="1" fill="#0a0e18"/><rect x="25" y="24" width="1" height="1" fill="#0a0e18"/><rect x="6" y="25" width="1" height="1" fill="#0a0e18"/><rect x="25" y="25" width="1" height="1" fill="#0a0e18"/><rect x="6" y="26" width="1" height="1" fill="#0a0e18"/><rect x="25" y="26" width="1" height="1" fill="#0a0e18"/><rect x="6" y="27" width="1" height="1" fill="#0a0e18"/><rect x="25" y="27" width="1" height="1" fill="#0a0e18"/><rect x="13" y="12" width="1" height="1" fill="#0a0e18"/><rect x="14" y="11" width="1" height="1" fill="#0a0e18"/><rect x="15" y="11" width="1" height="1" fill="#0a0e18"/><rect x="16" y="11" width="1" height="1" fill="#0a0e18"/><rect x="18" y="12" width="1" height="1" fill="#0a0e18"/><rect x="17" y="11" width="1" height="1" fill="#0a0e18"/><rect x="11" y="13" width="1" height="1" fill="#0a0e18"/><rect x="12" y="12" width="1" height="1" fill="#0a0e18"/><rect x="9" y="14" width="1" height="1" fill="#0a0e18"/><rect x="10" y="13" width="1" height="1" fill="#0a0e18"/><rect x="7" y="15" width="1" height="1" fill="#0a0e18"/><rect x="8" y="14" width="1" height="1" fill="#0a0e18"/><rect x="24" y="15" width="1" height="1" fill="#0a0e18"/><rect x="5" y="16" width="1" height="1" fill="#0a0e18"/><rect x="6" y="15" width="1" height="1" fill="#0a0e18"/><rect x="26" y="16" width="1" height="1" fill="#0a0e18"/><rect x="25" y="15" width="1" height="1" fill="#0a0e18"/><rect x="20" y="9" width="3" height="6" fill="#5a2715"/><rect x="7" y="17" width="18" height="11" fill="#a5977f"/><rect x="14" y="12" width="4" height="1" fill="#5a2715"/><rect x="12" y="13" width="8" height="1" fill="#5a2715"/><rect x="10" y="14" width="12" height="1" fill="#5a2715"/><rect x="8" y="15" width="16" height="1" fill="#5a2715"/><rect x="6" y="16" width="20" height="1" fill="#5a2715"/><rect x="9" y="19" width="8" height="5" fill="#2a2019"/><rect x="10" y="20" width="6" height="3" fill="#ffcf5c"/><rect x="13" y="20" width="1" height="3" fill="#2a2019"/><rect x="9" y="18" width="1" height="2" fill="#7a3324"/><rect x="10" y="18" width="1" height="2" fill="#a5977f"/><rect x="11" y="18" width="1" height="2" fill="#7a3324"/><rect x="12" y="18" width="1" height="2" fill="#a5977f"/><rect x="13" y="18" width="1" height="2" fill="#7a3324"/><rect x="14" y="18" width="1" height="2" fill="#a5977f"/><rect x="15" y="18" width="1" height="2" fill="#7a3324"/><rect x="16" y="18" width="1" height="2" fill="#a5977f"/><rect x="19" y="21" width="4" height="7" fill="#2e1f15"/><rect x="21" y="8" width="2" height="2" fill="#8a93ad" class="smoke d1"/><rect x="21" y="8" width="2" height="2" fill="#8a93ad" class="smoke d2"/><rect x="21" y="8" width="2" height="2" fill="#8a93ad" class="smoke d3"/></svg>
